<svg width="150" height="150" viewBox="0 0 150 150" fill="none" xmlns="http://www.w3.org/2000/svg">
<rect width="150" height="150" fill="#D9D9D9"/>
<path d="M20.5909 62.7273V86H17.7727V65.6818H17.6364L11.9545 69.4545V66.5909L17.7727 62.7273H20.5909ZM34.5568 86.3182C33.2235 86.3182 32.0227 86.053 30.9545 85.5227C29.8864 84.9924 29.0303 84.2652 28.3864 83.3409C27.7424 82.4167 27.3902 81.3636 27.3295 80.1818H30.0568C30.1629 81.2348 30.6402 82.1061 31.4886 82.7955C32.3447 83.4773 33.3674 83.8182 34.5568 83.8182C35.5114 83.8182 36.3598 83.5947 37.1023 83.1477C37.8523 82.7008 38.4394 82.0871 38.8636 81.3068C39.2955 80.5189 39.5114 79.6288 39.5114 78.6364C39.5114 77.6212 39.2879 76.7159 38.8409 75.9205C38.4015 75.1174 37.7955 74.4848 37.0227 74.0227C36.25 73.5606 35.3674 73.3258 34.375 73.3182C33.6629 73.3106 32.9318 73.4205 32.1818 73.6477C31.4318 73.8674 30.8144 74.1515 30.3295 74.5L27.6932 74.1818L29.1023 62.7273H41.1932V65.2273H31.4659L30.6477 72.0909H30.7841C31.2614 71.7121 31.8598 71.3977 32.5795 71.1477C33.2992 70.8977 34.0492 70.7727 34.8295 70.7727C36.2538 70.7727 37.5227 71.1136 38.6364 71.7955C39.7576 72.4697 40.6364 73.3939 41.2727 74.5682C41.9167 75.7424 42.2386 77.0833 42.2386 78.5909C42.2386 80.0758 41.9053 81.4015 41.2386 82.5682C40.5795 83.7273 39.6705 84.6439 38.5114 85.3182C37.3523 85.9848 36.0341 86.3182 34.5568 86.3182ZM54.3438 86.3182C52.6316 86.3182 51.1733 85.8523 49.9688 84.9205C48.7642 83.9811 47.8438 82.6212 47.2074 80.8409C46.571 79.053 46.2528 76.8939 46.2528 74.3636C46.2528 71.8485 46.571 69.7008 47.2074 67.9205C47.8513 66.1326 48.7756 64.7689 49.9801 63.8295C51.1922 62.8826 52.6468 62.4091 54.3438 62.4091C56.0407 62.4091 57.4915 62.8826 58.696 63.8295C59.9081 64.7689 60.8324 66.1326 61.4688 67.9205C62.1127 69.7008 62.4347 71.8485 62.4347 74.3636C62.4347 76.8939 62.1165 79.053 61.4801 80.8409C60.8438 82.6212 59.9233 83.9811 58.7188 84.9205C57.5142 85.8523 56.0559 86.3182 54.3438 86.3182ZM54.3438 83.8182C56.0407 83.8182 57.3589 83 58.2983 81.3636C59.2377 79.7273 59.7074 77.3939 59.7074 74.3636C59.7074 72.3485 59.4915 70.6326 59.0597 69.2159C58.6354 67.7992 58.0218 66.7197 57.2188 65.9773C56.4233 65.2348 55.465 64.8636 54.3438 64.8636C52.6619 64.8636 51.3475 65.6932 50.4006 67.3523C49.4536 69.0038 48.9801 71.3409 48.9801 74.3636C48.9801 76.3788 49.1922 78.0909 49.6165 79.5C50.0407 80.9091 50.6506 81.9811 51.446 82.7159C52.2491 83.4508 53.215 83.8182 54.3438 83.8182ZM80.4347 81.8182L67.6165 69L69.3438 67.2727L82.1619 80.0909L80.4347 81.8182ZM69.3438 81.8182L67.6165 80.0909L80.4347 67.2727L82.1619 69L69.3438 81.8182ZM96.0284 62.7273V86H93.2102V65.6818H93.0739L87.392 69.4545V66.5909L93.2102 62.7273H96.0284ZM109.994 86.3182C108.661 86.3182 107.46 86.053 106.392 85.5227C105.324 84.9924 104.468 84.2652 103.824 83.3409C103.18 82.4167 102.828 81.3636 102.767 80.1818H105.494C105.6 81.2348 106.078 82.1061 106.926 82.7955C107.782 83.4773 108.805 83.8182 109.994 83.8182C110.949 83.8182 111.797 83.5947 112.54 83.1477C113.29 82.7008 113.877 82.0871 114.301 81.3068C114.733 80.5189 114.949 79.6288 114.949 78.6364C114.949 77.6212 114.725 76.7159 114.278 75.9205C113.839 75.1174 113.233 74.4848 112.46 74.0227C111.688 73.5606 110.805 73.3258 109.812 73.3182C109.1 73.3106 108.369 73.4205 107.619 73.6477C106.869 73.8674 106.252 74.1515 105.767 74.5L103.131 74.1818L104.54 62.7273H116.631V65.2273H106.903L106.085 72.0909H106.222C106.699 71.7121 107.297 71.3977 108.017 71.1477C108.737 70.8977 109.487 70.7727 110.267 70.7727C111.691 70.7727 112.96 71.1136 114.074 71.7955C115.195 72.4697 116.074 73.3939 116.71 74.5682C117.354 75.7424 117.676 77.0833 117.676 78.5909C117.676 80.0758 117.343 81.4015 116.676 82.5682C116.017 83.7273 115.108 84.6439 113.949 85.3182C112.79 85.9848 111.472 86.3182 109.994 86.3182ZM129.781 86.3182C128.069 86.3182 126.611 85.8523 125.406 84.9205C124.202 83.9811 123.281 82.6212 122.645 80.8409C122.009 79.053 121.69 76.8939 121.69 74.3636C121.69 71.8485 122.009 69.7008 122.645 67.9205C123.289 66.1326 124.213 64.7689 125.418 63.8295C126.63 62.8826 128.084 62.4091 129.781 62.4091C131.478 62.4091 132.929 62.8826 134.134 63.8295C135.346 64.7689 136.27 66.1326 136.906 67.9205C137.55 69.7008 137.872 71.8485 137.872 74.3636C137.872 76.8939 137.554 79.053 136.918 80.8409C136.281 82.6212 135.361 83.9811 134.156 84.9205C132.952 85.8523 131.493 86.3182 129.781 86.3182ZM129.781 83.8182C131.478 83.8182 132.796 83 133.736 81.3636C134.675 79.7273 135.145 77.3939 135.145 74.3636C135.145 72.3485 134.929 70.6326 134.497 69.2159C134.073 67.7992 133.459 66.7197 132.656 65.9773C131.861 65.2348 130.902 64.8636 129.781 64.8636C128.099 64.8636 126.785 65.6932 125.838 67.3523C124.891 69.0038 124.418 71.3409 124.418 74.3636C124.418 76.3788 124.63 78.0909 125.054 79.5C125.478 80.9091 126.088 81.9811 126.884 82.7159C127.687 83.4508 128.652 83.8182 129.781 83.8182Z" fill="#C4C4C4"/>
</svg>
