<svg width="80" height="80" viewBox="0 0 80 80" fill="none" xmlns="http://www.w3.org/2000/svg">
<rect width="80" height="80" fill="#D9D9D9"/>
<path d="M14.1648 47.1989C13.1894 47.1989 12.3277 47.026 11.5795 46.6804C10.8362 46.33 10.2562 45.8494 9.83949 45.2386C9.42282 44.6231 9.21686 43.9223 9.22159 43.1364C9.21686 42.5208 9.33759 41.9527 9.58381 41.4318C9.83002 40.9062 10.1662 40.4683 10.5923 40.1179C11.0232 39.7628 11.5038 39.5379 12.0341 39.4432V39.358C11.3381 39.178 10.7841 38.7874 10.3722 38.1861C9.96023 37.58 9.75663 36.8911 9.76136 36.1193C9.75663 35.3807 9.94366 34.7202 10.3224 34.1378C10.7012 33.5554 11.2221 33.0961 11.8849 32.7599C12.5526 32.4238 13.3125 32.2557 14.1648 32.2557C15.0076 32.2557 15.7604 32.4238 16.4233 32.7599C17.0862 33.0961 17.607 33.5554 17.9858 34.1378C18.3693 34.7202 18.5634 35.3807 18.5682 36.1193C18.5634 36.8911 18.3527 37.58 17.9361 38.1861C17.5241 38.7874 16.9773 39.178 16.2955 39.358V39.4432C16.821 39.5379 17.2945 39.7628 17.7159 40.1179C18.1373 40.4683 18.4735 40.9062 18.7244 41.4318C18.9754 41.9527 19.1032 42.5208 19.108 43.1364C19.1032 43.9223 18.8902 44.6231 18.4688 45.2386C18.0521 45.8494 17.4721 46.33 16.7287 46.6804C15.9901 47.026 15.1354 47.1989 14.1648 47.1989ZM14.1648 45.6364C14.8229 45.6364 15.3911 45.5298 15.8693 45.3168C16.3475 45.1037 16.7169 44.803 16.9773 44.4148C17.2377 44.0265 17.3703 43.572 17.375 43.0511C17.3703 42.5019 17.2282 42.0166 16.9489 41.5952C16.6695 41.1738 16.2884 40.8423 15.8054 40.6009C15.3272 40.3594 14.7803 40.2386 14.1648 40.2386C13.5445 40.2386 12.9905 40.3594 12.5028 40.6009C12.0199 40.8423 11.6387 41.1738 11.3594 41.5952C11.0848 42.0166 10.9498 42.5019 10.9545 43.0511C10.9498 43.572 11.0753 44.0265 11.331 44.4148C11.5914 44.803 11.9631 45.1037 12.446 45.3168C12.929 45.5298 13.5019 45.6364 14.1648 45.6364ZM14.1648 38.733C14.6856 38.733 15.1473 38.6288 15.5497 38.4205C15.9569 38.2121 16.2765 37.9209 16.5085 37.5469C16.7405 37.1728 16.8589 36.7348 16.8636 36.233C16.8589 35.7405 16.7429 35.312 16.5156 34.9474C16.2884 34.5781 15.9735 34.294 15.571 34.0952C15.1686 33.8916 14.6998 33.7898 14.1648 33.7898C13.6203 33.7898 13.1444 33.8916 12.7372 34.0952C12.33 34.294 12.0152 34.5781 11.7926 34.9474C11.5701 35.312 11.4612 35.7405 11.4659 36.233C11.4612 36.7348 11.5724 37.1728 11.7997 37.5469C12.0317 37.9209 12.3513 38.2121 12.7585 38.4205C13.1657 38.6288 13.6345 38.733 14.1648 38.733ZM26.5742 47.1989C25.5041 47.1989 24.5927 46.9077 23.8398 46.3253C23.087 45.7382 22.5117 44.8883 22.114 43.7756C21.7163 42.6581 21.5174 41.3087 21.5174 39.7273C21.5174 38.1553 21.7163 36.813 22.114 35.7003C22.5165 34.5829 23.0941 33.7306 23.8469 33.1435C24.6045 32.5516 25.5136 32.2557 26.5742 32.2557C27.6348 32.2557 28.5415 32.5516 29.2944 33.1435C30.052 33.7306 30.6296 34.5829 31.0273 35.7003C31.4298 36.813 31.631 38.1553 31.631 39.7273C31.631 41.3087 31.4322 42.6581 31.0344 43.7756C30.6367 44.8883 30.0614 45.7382 29.3086 46.3253C28.5558 46.9077 27.6443 47.1989 26.5742 47.1989ZM26.5742 45.6364C27.6348 45.6364 28.4587 45.125 29.0458 44.1023C29.6329 43.0795 29.9265 41.6212 29.9265 39.7273C29.9265 38.4678 29.7915 37.3954 29.5217 36.5099C29.2565 35.6245 28.873 34.9498 28.3711 34.4858C27.8739 34.0218 27.275 33.7898 26.5742 33.7898C25.5231 33.7898 24.7016 34.3082 24.1097 35.3452C23.5179 36.3774 23.2219 37.8381 23.2219 39.7273C23.2219 40.9867 23.3545 42.0568 23.6197 42.9375C23.8848 43.8182 24.266 44.4882 24.7631 44.9474C25.265 45.4067 25.8687 45.6364 26.5742 45.6364ZM42.881 44.3864L34.8697 36.375L35.9492 35.2955L43.9606 43.3068L42.881 44.3864ZM35.9492 44.3864L34.8697 43.3068L42.881 35.2955L43.9606 36.375L35.9492 44.3864ZM52.1726 47.1989C51.1972 47.1989 50.3355 47.026 49.5874 46.6804C48.844 46.33 48.264 45.8494 47.8473 45.2386C47.4306 44.6231 47.2247 43.9223 47.2294 43.1364C47.2247 42.5208 47.3454 41.9527 47.5916 41.4318C47.8378 40.9062 48.174 40.4683 48.6001 40.1179C49.031 39.7628 49.5116 39.5379 50.0419 39.4432V39.358C49.3459 39.178 48.7919 38.7874 48.38 38.1861C47.968 37.58 47.7644 36.8911 47.7692 36.1193C47.7644 35.3807 47.9515 34.7202 48.3303 34.1378C48.709 33.5554 49.2299 33.0961 49.8928 32.7599C50.5604 32.4238 51.3203 32.2557 52.1726 32.2557C53.0154 32.2557 53.7682 32.4238 54.4311 32.7599C55.094 33.0961 55.6148 33.5554 55.9936 34.1378C56.3771 34.7202 56.5713 35.3807 56.576 36.1193C56.5713 36.8911 56.3606 37.58 55.9439 38.1861C55.532 38.7874 54.9851 39.178 54.3033 39.358V39.4432C54.8288 39.5379 55.3023 39.7628 55.7237 40.1179C56.1451 40.4683 56.4813 40.9062 56.7322 41.4318C56.9832 41.9527 57.111 42.5208 57.1158 43.1364C57.111 43.9223 56.898 44.6231 56.4766 45.2386C56.0599 45.8494 55.4799 46.33 54.7365 46.6804C53.9979 47.026 53.1432 47.1989 52.1726 47.1989ZM52.1726 45.6364C52.8307 45.6364 53.3989 45.5298 53.8771 45.3168C54.3554 45.1037 54.7247 44.803 54.9851 44.4148C55.2455 44.0265 55.3781 43.572 55.3828 43.0511C55.3781 42.5019 55.236 42.0166 54.9567 41.5952C54.6773 41.1738 54.2962 40.8423 53.8132 40.6009C53.335 40.3594 52.7881 40.2386 52.1726 40.2386C51.5523 40.2386 50.9983 40.3594 50.5107 40.6009C50.0277 40.8423 49.6465 41.1738 49.3672 41.5952C49.0926 42.0166 48.9576 42.5019 48.9624 43.0511C48.9576 43.572 49.0831 44.0265 49.3388 44.4148C49.5992 44.803 49.9709 45.1037 50.4538 45.3168C50.9368 45.5298 51.5097 45.6364 52.1726 45.6364ZM52.1726 38.733C52.6934 38.733 53.1551 38.6288 53.5575 38.4205C53.9647 38.2121 54.2843 37.9209 54.5163 37.5469C54.7483 37.1728 54.8667 36.7348 54.8714 36.233C54.8667 35.7405 54.7507 35.312 54.5234 34.9474C54.2962 34.5781 53.9813 34.294 53.5788 34.0952C53.1764 33.8916 52.7076 33.7898 52.1726 33.7898C51.6281 33.7898 51.1522 33.8916 50.745 34.0952C50.3378 34.294 50.023 34.5781 49.8004 34.9474C49.5779 35.312 49.469 35.7405 49.4737 36.233C49.469 36.7348 49.5803 37.1728 49.8075 37.5469C50.0395 37.9209 50.3591 38.2121 50.7663 38.4205C51.1735 38.6288 51.6423 38.733 52.1726 38.733ZM64.582 47.1989C63.512 47.1989 62.6005 46.9077 61.8477 46.3253C61.0948 45.7382 60.5195 44.8883 60.1218 43.7756C59.7241 42.6581 59.5252 41.3087 59.5252 39.7273C59.5252 38.1553 59.7241 36.813 60.1218 35.7003C60.5243 34.5829 61.1019 33.7306 61.8548 33.1435C62.6123 32.5516 63.5214 32.2557 64.582 32.2557C65.6426 32.2557 66.5494 32.5516 67.3022 33.1435C68.0598 33.7306 68.6374 34.5829 69.0352 35.7003C69.4376 36.813 69.6388 38.1553 69.6388 39.7273C69.6388 41.3087 69.44 42.6581 69.0423 43.7756C68.6445 44.8883 68.0692 45.7382 67.3164 46.3253C66.5636 46.9077 65.6521 47.1989 64.582 47.1989ZM64.582 45.6364C65.6426 45.6364 66.4665 45.125 67.0536 44.1023C67.6407 43.0795 67.9343 41.6212 67.9343 39.7273C67.9343 38.4678 67.7994 37.3954 67.5295 36.5099C67.2643 35.6245 66.8808 34.9498 66.3789 34.4858C65.8817 34.0218 65.2828 33.7898 64.582 33.7898C63.5309 33.7898 62.7094 34.3082 62.1175 35.3452C61.5257 36.3774 61.2298 37.8381 61.2298 39.7273C61.2298 40.9867 61.3623 42.0568 61.6275 42.9375C61.8926 43.8182 62.2738 44.4882 62.771 44.9474C63.2728 45.4067 63.8765 45.6364 64.582 45.6364Z" fill="#C4C4C4"/>
</svg>
