<!-- Diners -->
<svg xmlns="http://www.w3.org/2000/svg" x="0px" y="0px" width="54" height="54" viewBox="0 0 64 64">
    <path d="M 7 12 C 4.791 12 3 13.791 3 16 L 3 48 C 3 50.209 4.791 52 7 52 L 57 52 C 59.209 52 61 50.209 61 48 L 61 16 C 61 13.791 59.209 12 57 12 L 7 12 z M 27 20 L 37 20 C 43.627 20 49 25.373 49 32 C 49 38.627 43.627 44 37 44 L 27 44 C 20.373 44 15 38.627 15 32 C 15 25.373 20.373 20 27 20 z M 28 22 C 22.500839 22 18 26.500844 18 32 C 18 37.499156 22.500839 42 28 42 C 33.499161 42 38 37.499156 38 32 C 38 26.500844 33.499161 22 28 22 z M 26 26.34375 L 26 37.65625 C 23.661014 36.839693 22 34.63341 22 32 C 22 29.36659 23.661014 27.160307 26 26.34375 z M 30 26.34375 C 32.338986 27.160307 34 29.36659 34 32 C 34 34.63341 32.338986 36.839693 30 37.65625 L 30 26.34375 z"></path>
</svg>