<!-- Elo -->
<svg xmlns="http://www.w3.org/2000/svg" width="83" height="54" viewBox="0 0 83 54" fill="none">
    <g clip-path="url(#clip0_58_22)">
        <path d="M77.1474 -0.09729H5.85256C2.62546 -0.09729 0 2.57166 0 5.85223V48.1479C0 51.4285 2.62546 54.0974 5.85256 54.0974H77.1474C80.3743 54.0974 83 51.4285 83 48.1479V5.85223C83 2.57166 80.3743 -0.09729 77.1474 -0.09729Z" fill="white"/>
        <path d="M15.8709 19.4001C16.6507 19.1364 17.4878 18.9987 18.3593 18.9987C22.1664 18.9987 25.3428 21.705 26.0653 25.2942L31.4548 24.1934C30.2164 18.0928 24.8268 13.4945 18.3593 13.4945C16.8801 13.4945 15.4581 13.7353 14.1279 14.1825L15.8709 19.4001Z" fill="#FFF100"/>
        <path d="M9.5066 36.8762L13.1532 32.748C11.5248 31.3031 10.5042 29.2046 10.5042 26.8539C10.5042 24.5146 11.5248 22.4046 13.1532 20.9712L9.5066 16.8545C6.74301 19.3085 5 22.8748 5 26.8653C5 30.8444 6.74301 34.4222 9.5066 36.8762Z" fill="#00A3DF"/>
        <path d="M26.065 28.4362C25.3311 32.0254 22.1662 34.7202 18.3591 34.7202C17.4876 34.7202 16.6505 34.5826 15.8592 34.3188L14.1162 39.5364C15.4464 39.9836 16.8798 40.2244 18.3591 40.2244C24.8265 40.2244 30.2161 35.6375 31.4546 29.537L26.065 28.4362Z" fill="#EE4023"/>
        <path d="M49.4123 32.1286C48.5178 33.0001 47.3138 33.5276 45.9836 33.5047C45.0662 33.4932 44.2176 33.218 43.5067 32.7593L41.7178 35.6032C42.9448 36.3715 44.3782 36.8302 45.9377 36.8531C48.1967 36.8875 50.2608 35.9931 51.763 34.5367L49.4123 32.1286ZM46.1785 20.5353C41.6834 20.4665 37.968 24.0672 37.8992 28.5624C37.8763 30.248 38.3579 31.8305 39.2179 33.1378L53.9877 26.8193C53.162 23.276 49.9971 20.6041 46.1785 20.5353ZM41.282 29.2045C41.2591 29.021 41.2476 28.8261 41.2476 28.6312C41.2935 25.9822 43.4723 23.8608 46.1212 23.9067C47.566 23.9296 48.8504 24.5832 49.7104 25.6153L41.282 29.2045ZM58.6319 16.8658V32.6103L61.361 33.7455L60.0653 36.8531L57.359 35.7293C56.7512 35.4656 56.3384 35.0642 56.0288 34.6056C55.7307 34.1469 55.5013 33.5047 55.5013 32.6561V16.8658H58.6319Z" fill="black"/>
        <path d="M68.4825 24.1474C68.9641 23.9869 69.4687 23.9066 70.0076 23.9066C72.3355 23.9066 74.262 25.5579 74.7092 27.7481L78.0003 27.0716C77.2434 23.3447 73.9523 20.5468 70.0076 20.5468C69.1017 20.5468 68.2302 20.6958 67.4275 20.9596L68.4825 24.1474ZM64.5951 34.8004L66.8198 32.2891C65.8221 31.4062 65.2029 30.1218 65.2029 28.6884C65.2029 27.255 65.8336 25.9707 66.8198 25.0992L64.5951 22.5879C62.9095 24.0786 61.843 26.2689 61.843 28.6999C61.843 31.1309 62.9095 33.3097 64.5951 34.8004ZM74.7092 29.6632C74.262 31.8534 72.324 33.5047 70.0076 33.5047C69.4801 33.5047 68.9641 33.4129 68.4825 33.2524L67.4161 36.4402C68.2302 36.7155 69.1017 36.8645 70.0076 36.8645C73.9523 36.8645 77.2434 34.0665 78.0003 30.3397L74.7092 29.6632Z" fill="black"/>
    </g>
    <defs>
        <clipPath id="clip0_58_22">
            <rect width="83" height="54" fill="white"/>
        </clipPath>
    </defs>
</svg>