<!-- Hipercard -->
<svg xmlns="http://www.w3.org/2000/svg" width="83" height="54" viewBox="0 0 83 54" fill="none">
    <g clip-path="url(#clip0_57_8)">
        <path d="M77.1474 -0.09729H5.85256C2.62546 -0.09729 0 2.57166 0 5.85223V48.1479C0 51.4285 2.62546 54.0974 5.85256 54.0974H77.1474C80.3743 54.0974 83 51.4285 83 48.1479V5.85223C83 2.57166 80.3743 -0.09729 77.1474 -0.09729Z" fill="white"/>
        <path d="M35.4941 43.1384L5.00439 43.1497V43.075C5.00439 43.034 5.05302 42.768 5.1124 42.4839C5.17188 42.1998 5.26425 41.7479 5.31788 41.4797C5.3713 41.2115 5.46281 40.7558 5.52102 40.4668C5.66424 39.7607 5.80577 39.0542 5.94549 38.3474C6.0005 38.0688 6.09212 37.6129 6.14937 37.3346C6.22237 36.9784 6.29451 36.622 6.36613 36.2654C6.42806 35.9561 6.52223 35.4832 6.57544 35.215C6.62864 34.9467 6.71313 34.5331 6.76325 34.296C6.81326 34.0588 6.87722 33.7381 6.90509 33.5832C6.93308 33.4285 7.02364 32.9725 7.10632 32.5703C7.17591 32.2332 7.24359 31.8956 7.30903 31.5575C7.33787 31.4028 7.42948 30.9469 7.5127 30.5447C7.5958 30.1425 7.6871 29.6867 7.71562 29.5319C7.74414 29.3772 7.83597 28.9213 7.91961 28.519C8.00346 28.1166 8.09391 27.6695 8.12051 27.525C8.14733 27.3806 8.22054 27.0093 8.28332 26.6998C8.346 26.3903 8.46475 25.8079 8.54711 25.4056C8.62958 25.0032 8.77047 24.3027 8.86017 23.8486C8.95009 23.3948 9.05746 22.8547 9.09885 22.6483C9.22048 22.0416 9.34317 21.4351 9.46713 20.829C9.52821 20.5296 9.62749 20.0401 9.68783 19.7409C9.74827 19.4417 9.84127 18.9775 9.89458 18.7094C9.9479 18.4412 10.0389 17.9939 10.0968 17.7153C10.1547 17.4368 10.2543 16.9471 10.3181 16.6274C10.3819 16.3075 10.4889 15.818 10.5557 15.5395C10.6225 15.2609 10.717 14.9233 10.7658 14.7893C10.8144 14.655 10.9488 14.3645 11.0644 14.1432L11.2745 13.7411L11.4655 13.4867C11.5704 13.3469 11.758 13.1259 11.8822 12.9957C12.0064 12.8654 12.2158 12.6694 12.3479 12.5602C12.4797 12.4508 12.6707 12.3033 12.7721 12.2323C12.8736 12.1613 13.073 12.037 13.215 11.9561C13.3571 11.8752 13.5565 11.7693 13.6579 11.7207C13.7594 11.6722 13.967 11.5834 14.1192 11.5235C14.2713 11.4638 14.562 11.3636 14.7649 11.3009C14.9678 11.2382 15.3489 11.1436 15.6116 11.091C15.8743 11.0382 16.2893 10.9676 16.5342 10.9342L16.9791 10.8734L47.4879 10.8617L77.9968 10.8497V10.9244C77.9968 10.9654 77.9479 11.2314 77.8882 11.5154C77.8127 11.8749 77.7387 12.2346 77.666 12.5947C77.6034 12.9042 77.5127 13.3516 77.4637 13.5888C77.3946 13.9263 77.3259 14.2639 77.258 14.6016C77.1938 14.9215 77.095 15.4111 77.0385 15.6895C76.982 15.968 76.8904 16.4239 76.8351 16.7023C76.7797 16.981 76.6876 17.4367 76.6304 17.7152C76.5638 18.0401 76.4981 18.3653 76.4331 18.6907C76.382 18.9485 76.2892 19.4127 76.2271 19.7222C76.165 20.0316 76.0653 20.5213 76.0055 20.8101C75.9457 21.0989 75.8546 21.5463 75.8031 21.8042C75.7515 22.0621 75.6588 22.5263 75.5969 22.8356C75.5349 23.1451 75.4354 23.6348 75.3756 23.9237C75.3158 24.2126 75.2269 24.6514 75.1776 24.899C75.0411 25.5869 74.9036 26.2748 74.7654 26.9623C74.7154 27.2098 74.6263 27.6488 74.5674 27.9376C74.492 28.3063 74.4173 28.6751 74.3431 29.0442C74.2787 29.3641 74.1866 29.8197 74.1385 30.0572C74.0902 30.2943 74.0001 30.7416 73.9379 31.0511C73.8651 31.4139 73.792 31.7764 73.7184 32.139C73.6598 32.4279 73.5678 32.8837 73.514 33.152C73.4603 33.4202 73.3668 33.8844 73.3065 34.1834C73.246 34.4826 73.1472 34.9721 73.0871 35.2713C73.0268 35.5705 72.9366 36.0179 72.8865 36.2655C72.8182 36.6029 72.7505 36.9405 72.683 37.2783C72.6103 37.6399 72.5359 38.0012 72.4593 38.362L72.3483 38.8831L72.2159 39.2435C72.1431 39.4418 72.0336 39.7053 71.9725 39.8292C71.9118 39.9529 71.7876 40.1713 71.6967 40.3146C71.6058 40.4576 71.4792 40.641 71.4154 40.722C71.3514 40.8031 71.1592 41.0123 70.9878 41.1871L70.6768 41.5046L70.3773 41.7209C70.2126 41.84 70.035 41.9611 69.9831 41.9898C69.9309 42.0188 69.7325 42.1219 69.5419 42.2186C69.3515 42.3155 69.0825 42.439 68.9442 42.4927C68.8059 42.5467 68.5319 42.6383 68.3353 42.6964C68.1388 42.7547 67.9281 42.8121 67.8673 42.824C67.8064 42.8358 67.595 42.8802 67.3976 42.9228C67.2002 42.9653 66.8016 43.0287 66.5121 43.0638L65.9853 43.1276L35.4956 43.1384H35.4941ZM24.6467 35.1212H25.4401L25.4624 35.0618C25.4749 35.0291 25.4849 34.9524 25.4849 34.8913C25.4849 34.8302 25.511 34.608 25.5431 34.3975C25.575 34.1868 25.6499 33.7023 25.7097 33.3206C25.7694 32.9389 25.8588 32.3649 25.9084 32.0452C25.9555 31.7423 26.0003 31.439 26.043 31.1354C26.0673 30.9549 26.097 30.8072 26.1091 30.8072C26.121 30.8072 26.1723 30.887 26.223 30.9845L26.3152 31.1618L26.5197 31.3715L26.7243 31.581L26.9761 31.6835L27.228 31.786L27.528 31.8255L27.8282 31.8649L28.2091 31.8413L28.59 31.8173L29.0025 31.709L29.415 31.6002L29.6363 31.4977C29.7582 31.4412 29.974 31.3179 30.116 31.2239L30.3744 31.0529L30.6152 30.8081C30.7477 30.6737 30.9346 30.4578 31.0303 30.3285C31.1263 30.1994 31.2047 30.0842 31.2047 30.0727C31.2047 30.0613 31.2519 29.9812 31.3094 29.8949C31.367 29.8087 31.4847 29.5691 31.5711 29.3629C31.6576 29.1566 31.7925 28.7853 31.8713 28.5376L32.0143 28.0874L32.0883 27.6976C32.1289 27.4832 32.1813 27.1286 32.2046 26.9098L32.2468 26.5119L32.2223 26.1743L32.198 25.8367L32.1208 25.4991L32.0439 25.1615L31.9192 24.9088L31.7946 24.6559L31.5538 24.3965L31.3131 24.1371L31.0282 23.9874L30.7433 23.8377L30.4296 23.7613L30.1159 23.685L29.8022 23.6616L29.4887 23.6382L29.1393 23.679L28.7897 23.7198L28.5047 23.7939L28.2195 23.8679L27.9717 23.9845C27.8355 24.0486 27.6371 24.1575 27.5311 24.2264C27.425 24.2955 27.3155 24.3747 27.2879 24.4027C27.2603 24.4308 27.194 24.4828 27.1408 24.518L27.0439 24.5826L27.1116 24.253C27.1489 24.0718 27.18 23.9025 27.1808 23.8766L27.1823 23.8297H25.8292L25.7107 24.5893C25.6453 25.0072 25.5423 25.6529 25.4817 26.0244C25.3479 26.8437 25.2126 27.6626 25.0756 28.4814C25.0153 28.8424 24.9156 29.4164 24.854 29.7569C24.7923 30.0973 24.7022 30.5953 24.6535 30.8636C24.6048 31.1317 24.5131 31.6381 24.4499 31.9888C24.3753 32.4016 24.3 32.8143 24.2239 33.2267C24.1519 33.6146 24.0782 34.0022 24.0032 34.3896C23.9428 34.699 23.8844 34.9904 23.8733 35.0366L23.8532 35.1211H24.6467V35.1212ZM28.0624 30.784L27.7544 30.8029L27.5531 30.7666L27.3516 30.7304L27.1471 30.6356L26.9425 30.5406L26.7997 30.4019L26.6568 30.2633L26.5743 30.0758C26.5289 29.9726 26.4706 29.7973 26.4448 29.6861L26.3978 29.4844L26.4166 29.1611L26.4355 28.8379L26.5306 28.3314C26.6023 27.9442 26.6719 27.5565 26.7391 27.1685C26.8016 26.8074 26.8963 26.2784 26.9494 25.9928L27.0459 25.4735L27.2574 25.2946C27.3739 25.1964 27.5582 25.0643 27.6671 25.0016L27.865 24.8873L28.1233 24.8061L28.3817 24.7248L28.7138 24.7049L29.0459 24.6851L29.3164 24.7437L29.5868 24.8022L29.7777 24.8916L29.9685 24.9809L30.1285 25.1445L30.2886 25.308L30.3748 25.4813C30.4224 25.5766 30.4891 25.763 30.5231 25.8956L30.5849 26.1368L30.566 26.8496L30.547 27.5625L30.4523 27.9838C30.4002 28.2155 30.301 28.57 30.2318 28.7714L30.1061 29.138L29.9521 29.4346C29.8674 29.5979 29.7368 29.8183 29.6619 29.9245C29.587 30.0308 29.4675 30.1688 29.3964 30.2307C29.3103 30.3051 29.2222 30.3769 29.1321 30.446L28.9968 30.5487L28.6837 30.657L28.3705 30.7653L28.0624 30.784ZM35.7251 31.8153L36.1311 31.8201L36.5368 31.7824C36.7603 31.7617 37.1255 31.7186 37.3486 31.6865C37.5721 31.6545 37.9577 31.5829 38.2059 31.5276L38.657 31.4266L38.6795 31.2574C38.6918 31.1646 38.7425 30.8878 38.7921 30.6425L38.8822 30.1963L38.8622 30.1761L38.8423 30.1559L38.7044 30.2235C38.6285 30.2607 38.3922 30.3497 38.1794 30.4209L37.7923 30.5504L37.386 30.6306L36.9797 30.7105L36.334 30.7119L35.6882 30.7131L35.4668 30.6413C35.345 30.6018 35.166 30.5295 35.0688 30.4805L34.8923 30.3917L34.7466 30.2579L34.6008 30.124L34.4871 29.922L34.3733 29.7199L34.302 29.4665L34.2307 29.213L34.2303 28.7439L34.2298 28.2749L34.293 27.8566L34.3565 27.4381L34.9117 27.4117L35.467 27.3853L37.5198 27.3988L39.5724 27.4121L39.6343 27.1449C39.6685 26.9979 39.7206 26.6941 39.7502 26.4697L39.8041 26.0617L39.8052 25.7186L39.8065 25.3753L39.7481 25.1192L39.6895 24.8629L39.5928 24.6934C39.5398 24.6002 39.446 24.4649 39.3848 24.3929C39.3235 24.321 39.214 24.2194 39.1416 24.1675C39.0689 24.1155 38.9266 24.0279 38.8251 23.9731L38.6407 23.8733L38.3184 23.7944L37.9959 23.7155L37.5989 23.6769L37.2016 23.6384L36.8327 23.6628L36.4636 23.6872L36.0208 23.7737L35.578 23.8602L35.3011 23.9726C35.1488 24.0343 34.9164 24.1473 34.7846 24.2234C34.6526 24.2994 34.47 24.4232 34.3788 24.4983C34.2873 24.5735 34.1291 24.7199 34.0273 24.8234C33.9253 24.9269 33.7744 25.1129 33.6923 25.2366C33.6099 25.3606 33.4837 25.58 33.4116 25.7243C33.3396 25.8688 33.2459 26.0714 33.2032 26.1745C33.1608 26.2776 33.0831 26.4886 33.0312 26.6433C32.979 26.7982 32.8971 27.0935 32.8493 27.2999C32.7929 27.5499 32.7442 27.8015 32.7032 28.0547L32.6442 28.4343L32.6449 28.9925L32.6455 29.5507L32.7015 29.7945C32.7323 29.9286 32.7914 30.1313 32.8325 30.2447C32.8736 30.3582 32.95 30.527 33.002 30.6199C33.054 30.7128 33.165 30.8621 33.2487 30.9521C33.3322 31.0419 33.4838 31.1784 33.5853 31.2551C33.6866 31.3318 33.8673 31.4399 33.9866 31.4951L34.2036 31.5955L34.5061 31.6699C34.6724 31.7108 34.9236 31.7593 35.0641 31.7776C35.2043 31.7955 35.5019 31.8128 35.7251 31.8153ZM36.4201 26.5307C35.3986 26.5307 34.5627 26.5234 34.5627 26.5142C34.5627 26.5052 34.6063 26.3743 34.6597 26.2234C34.7129 26.0726 34.8065 25.8483 34.8675 25.7248L34.9787 25.5002L35.2227 25.2534L35.4668 25.0064L35.7067 24.8899C35.8386 24.8258 36.013 24.756 36.0942 24.7347C36.1755 24.7135 36.4078 24.6854 36.6107 24.6723L36.9798 24.6482L37.2633 24.6853L37.5466 24.7223L37.7526 24.8181L37.9586 24.9141L38.0716 25.0379C38.1336 25.106 38.2076 25.2064 38.2361 25.2607L38.2875 25.3597L38.3216 25.5797L38.3557 25.7994L38.3167 26.1651L38.2777 26.531H36.4201V26.5307ZM47.4602 31.8155L47.8663 31.8201L48.3273 31.7645C48.5809 31.7339 48.9184 31.6833 49.0775 31.6518C49.2697 31.6126 49.4605 31.5665 49.6495 31.5139C49.805 31.4691 49.9458 31.4208 49.9622 31.4065C49.9787 31.3921 50.0225 31.222 50.0599 31.0282C50.0972 30.8345 50.1442 30.5748 50.1643 30.4509C50.1843 30.327 50.1947 30.2192 50.1874 30.2111C50.1799 30.203 50.1528 30.2135 50.1269 30.2342C50.1011 30.2552 49.9201 30.3327 49.7246 30.4064L49.3693 30.5406L48.8632 30.6402L48.3571 30.7398L47.927 30.725L47.4968 30.7101L47.2524 30.6238L47.0079 30.5376L46.8192 30.3698L46.6305 30.2018L46.5051 29.9698L46.3799 29.7379L46.3201 29.4276L46.2604 29.1175L46.2609 28.7149L46.2613 28.3124L46.3337 27.8248L46.4063 27.3369L46.483 27.0743C46.5251 26.9299 46.573 26.7611 46.5891 26.6992C46.6053 26.6373 46.6728 26.4601 46.7395 26.3052C46.806 26.1505 46.9247 25.9113 47.0032 25.7738L47.1461 25.5237L47.3215 25.3389L47.4969 25.154L47.6826 25.037L47.8685 24.9198L48.107 24.8451C48.2382 24.8041 48.4702 24.7506 48.6224 24.7267L48.8993 24.6828L49.305 24.7035L49.711 24.7241L50.1907 24.8217L50.6705 24.9192L50.8655 24.9933C50.9728 25.0338 51.0652 25.0674 51.0711 25.0674C51.0768 25.0674 51.1026 24.928 51.1282 24.7578C51.154 24.5877 51.1998 24.3075 51.23 24.1355C51.2603 23.9633 51.2778 23.8151 51.2687 23.8062C51.2599 23.7971 51.1157 23.7738 50.9484 23.7543C50.781 23.7351 50.3261 23.7007 49.9377 23.6779L49.2313 23.6367L48.7329 23.6754L48.2348 23.7143L47.8657 23.7931L47.4967 23.8719L47.2591 23.9685C47.1283 24.0216 46.937 24.1176 46.8336 24.1817C46.7346 24.243 46.6372 24.3068 46.5415 24.3732C46.4841 24.4145 46.31 24.5755 46.1544 24.7311L45.8719 25.0138L45.714 25.2488C45.6274 25.378 45.4772 25.6475 45.3805 25.8476L45.2047 26.2115L45.0699 26.6052C44.9958 26.8219 44.8923 27.1764 44.84 27.3931L44.7448 27.787L44.7102 28.1435L44.6757 28.4999L44.6761 28.9687L44.6765 29.4375L44.7113 29.7104L44.7461 29.9832L44.8566 30.2638L44.9671 30.5444L45.0949 30.7472L45.2224 30.95L45.4253 31.1532L45.6284 31.3562L45.8431 31.4717L46.058 31.5869L46.34 31.6667C46.495 31.7104 46.7192 31.7607 46.8382 31.7783C46.9572 31.7959 47.237 31.8125 47.4605 31.815H47.4602V31.8155ZM53.5302 31.8017L54.0283 31.7871L54.342 31.7055L54.6557 31.6237L54.8588 31.5264C54.9704 31.4728 55.153 31.3668 55.2645 31.291C55.3762 31.2153 55.5492 31.0712 55.6486 30.9709C55.748 30.8705 55.8956 30.6994 55.9765 30.5905C56.0574 30.4815 56.1285 30.3975 56.1343 30.4035C56.1405 30.4096 56.1218 30.5829 56.0929 30.7888C56.0643 30.9949 56.0405 31.2689 56.04 31.398L56.0394 31.6323H57.3939L57.4145 31.0979L57.4352 30.5633L57.5318 29.8693C57.585 29.4875 57.6709 28.922 57.7227 28.6126C57.7743 28.3032 57.8643 27.78 57.9226 27.4498C57.9808 27.1195 58.0731 26.6047 58.1275 26.3055L58.2267 25.7617L58.2301 25.2918L58.2333 24.8219L58.1289 24.6048L58.0244 24.3876L57.8827 24.2493L57.7409 24.111L57.5084 23.9914L57.2756 23.8715L56.9288 23.793L56.582 23.7144L56.1046 23.6777L55.6272 23.6407L55.0123 23.6794C54.6738 23.7006 54.1981 23.7426 53.9545 23.7726L53.5116 23.8273L53.2098 23.8284L52.9081 23.8296L52.8641 24.0454C52.84 24.164 52.7728 24.4458 52.715 24.6718C52.657 24.8976 52.6152 25.0879 52.6217 25.0945C52.6282 25.1011 52.7896 25.0639 52.9803 25.0118C53.171 24.9595 53.5763 24.8738 53.8808 24.8209L54.4342 24.7251L54.9324 24.7043L55.4306 24.6834L55.7516 24.7407L56.0726 24.7978L56.2867 24.9052L56.5009 25.0127L56.6208 25.1945L56.7409 25.3762L56.7391 25.6625L56.7373 25.9491L56.6737 26.2633L56.6101 26.5778L55.2822 26.5826L53.9544 26.5874L53.5199 26.7086C53.2809 26.7752 53.0163 26.8637 52.9318 26.905C52.8473 26.9466 52.7628 26.9806 52.744 26.9806C52.7252 26.9806 52.5831 27.0605 52.428 27.1587L52.1463 27.3366L51.9244 27.5618C51.8022 27.6858 51.6464 27.8714 51.5778 27.9746C51.5092 28.0777 51.3979 28.2932 51.3304 28.4535L51.2076 28.7448L51.1513 29.0724L51.0949 29.3999V30.0873L51.1487 30.3736L51.2026 30.6598L51.3024 30.8464C51.3575 30.9489 51.4584 31.0994 51.5265 31.1805L51.6508 31.3281L51.8714 31.4644L52.0921 31.6008L52.3448 31.6733C52.4838 31.7132 52.6952 31.7616 52.8148 31.781L53.0321 31.8157L53.5303 31.8012H53.5302V31.8017ZM53.9915 30.7525L53.6963 30.7683L53.5008 30.7176C53.3933 30.6898 53.2301 30.6278 53.1382 30.5797L52.9713 30.4923L52.88 30.3821C52.8299 30.3213 52.7533 30.2024 52.7097 30.1175L52.6306 29.963L52.6152 29.6025L52.5996 29.2419L52.6621 29.0231C52.6965 28.903 52.7773 28.694 52.8417 28.5592L52.9585 28.3139L53.1824 28.0882L53.4061 27.8623L53.6436 27.746L53.881 27.63L54.1762 27.5586L54.4713 27.4872H56.3165L56.3749 27.5118L56.4332 27.5363L56.3842 27.8308C56.3571 27.9927 56.2928 28.2855 56.2408 28.4815C56.1892 28.6776 56.0978 28.9657 56.038 29.1218C55.9781 29.278 55.929 29.4161 55.929 29.4286C55.929 29.4412 55.8684 29.5549 55.7942 29.6815L55.6594 29.9116L55.4382 30.1345C55.3166 30.257 55.2034 30.3572 55.1872 30.3572C55.1709 30.3572 55.0963 30.3996 55.0214 30.4511L54.8855 30.5448L54.5862 30.6412L54.2869 30.7374L53.9915 30.7525ZM66.0031 31.815L66.3536 31.8195L66.6858 31.7647C66.8686 31.7346 67.101 31.686 67.2025 31.6568C67.3039 31.6275 67.4867 31.5519 67.6082 31.4885L67.8298 31.3732L68.0202 31.2027L68.2106 31.0322L68.4113 30.7604C68.5216 30.6108 68.6216 30.4631 68.6333 30.4321L68.6547 30.3757L68.636 30.5633C68.6228 30.6889 68.6058 30.8139 68.5851 30.9386C68.5671 31.0416 68.5418 31.24 68.5283 31.3792L68.5039 31.6324H69.9517V31.126L70.0619 30.1693C70.1225 29.6432 70.2123 28.9428 70.2612 28.6125C70.3102 28.2823 70.3858 27.8099 70.4294 27.5623C70.4726 27.3146 70.5496 26.8671 70.6 26.5681C70.6507 26.269 70.742 25.7456 70.8031 25.4053C70.864 25.0648 70.9618 24.5245 71.0203 24.2049C71.0786 23.885 71.1693 23.3869 71.2219 23.0982C71.2745 22.8095 71.3684 22.3028 71.4309 21.9728C71.4963 21.6284 71.5639 21.2845 71.6337 20.9412C71.6829 20.7041 71.723 20.4971 71.7229 20.4817V20.4534H70.1433L70.12 20.688C70.1073 20.8169 70.0467 21.2431 69.9857 21.6352C69.9133 22.0981 69.8395 22.5608 69.7644 23.0231C69.7207 23.2899 69.6775 23.5566 69.6346 23.8235L69.6148 23.9484L69.5525 23.9216C69.5183 23.9068 69.3324 23.8543 69.1397 23.8051L68.7892 23.7156L68.3095 23.6775L67.8296 23.6396L67.4237 23.6779L67.0178 23.7164L66.6488 23.8112L66.2798 23.906L65.9293 24.0798L65.5785 24.2537L65.3202 24.4478L65.0619 24.6422L64.8388 24.8856C64.7161 25.0192 64.5389 25.2405 64.4449 25.3771L64.2742 25.6255L64.0735 26.0498C63.9632 26.2832 63.8289 26.5923 63.7752 26.7367C63.7214 26.8812 63.6267 27.2013 63.5644 27.4481L63.4515 27.897L63.3959 28.4799L63.3403 29.0626L63.382 29.5314L63.4241 30.0005L63.4733 30.1692C63.5007 30.262 63.5578 30.4275 63.6006 30.5367L63.6785 30.7357L63.8205 30.9311L63.9627 31.1267L64.1249 31.2617L64.2869 31.3968L64.5084 31.5086C64.6303 31.5698 64.8344 31.6495 64.9624 31.6851C65.0901 31.7206 65.2977 31.7635 65.4237 31.78C65.5496 31.7969 65.8102 31.8126 66.0031 31.815ZM66.6323 30.7509L66.3536 30.7657L66.1657 30.7314C66.0623 30.7125 65.8968 30.6616 65.7979 30.6186L65.6181 30.5404L65.4668 30.4142L65.3156 30.2883L65.2032 30.0695L65.0908 29.8508L65.0395 29.6069L64.9884 29.363L64.9928 28.8754L64.997 28.3877L65.0566 27.9562L65.1161 27.5249L65.2086 27.225C65.2595 27.0599 65.3013 26.904 65.3016 26.8787C65.302 26.8536 65.352 26.7186 65.4132 26.5789C65.4847 26.4171 65.5602 26.2573 65.6398 26.0995C65.7036 25.9757 65.8225 25.7828 65.9041 25.6706C65.9859 25.5587 66.1316 25.3898 66.2278 25.2954C66.324 25.2014 66.4769 25.0775 66.5678 25.0207L66.733 24.9174L67.0232 24.8154L67.3133 24.7133L67.9222 24.713H68.5311L68.8816 24.812C69.0745 24.8663 69.2793 24.9293 69.3366 24.952L69.441 24.9934L69.4207 25.0962C69.4096 25.1529 69.3656 25.4018 69.3232 25.6493C69.2809 25.8969 69.1972 26.3696 69.1375 26.6998C69.0778 27.0299 68.9861 27.528 68.9337 27.8064C68.8813 28.0848 68.8054 28.4394 68.765 28.594C68.7235 28.753 68.6814 28.9118 68.6385 29.0703C68.6092 29.1775 68.5395 29.3633 68.4838 29.483C68.4279 29.6026 68.3301 29.7767 68.2665 29.8694C68.2027 29.9622 68.0954 30.091 68.0275 30.1553C67.9595 30.2197 67.8125 30.334 67.701 30.4094L67.4981 30.5466L67.2047 30.6413L66.9113 30.7359L66.6323 30.7509ZM12.3227 31.6324H13.2192L13.2835 31.2292C13.3189 31.0074 13.388 30.581 13.4371 30.2819L13.64 29.044C13.7026 28.6623 13.7964 28.0967 13.8485 27.7874C13.9005 27.4779 13.9833 26.9978 14.0322 26.7207C14.0813 26.4432 14.1308 26.2068 14.1421 26.1954L14.1628 26.1744H18.9846L19.0114 26.2017L19.0382 26.2289L18.9963 26.4455C18.9734 26.5647 18.9054 26.932 18.8453 27.2623C18.7852 27.5924 18.6841 28.1494 18.6205 28.5003C18.5538 28.8694 18.4859 29.2382 18.4169 29.6068C18.3681 29.8647 18.2696 30.4048 18.1979 30.8072C18.1263 31.2095 18.0677 31.5598 18.068 31.5856L18.0684 31.6325H19.869L19.9087 31.3982C19.9308 31.2692 19.9659 31.0371 19.9872 30.8823C20.0082 30.7275 20.0594 30.3981 20.1006 30.1507C20.1418 29.9032 20.224 29.4135 20.2835 29.0628C20.3429 28.7121 20.4425 28.1127 20.5046 27.731C20.5668 27.3493 20.6589 26.7922 20.7096 26.4932C20.7737 26.1176 20.8404 25.7425 20.9096 25.3679C20.9691 25.048 21.0683 24.5079 21.13 24.1672C21.1917 23.8269 21.284 23.3121 21.3353 23.0231C21.3866 22.7343 21.48 22.2109 21.543 21.8602C21.606 21.5095 21.6855 21.1003 21.7196 20.9505L21.7818 20.6786H19.9587L19.9339 20.8568C19.9203 20.9546 19.8763 21.229 19.8361 21.4664C19.7957 21.7036 19.7227 22.1256 19.6736 22.4041C19.6244 22.6828 19.5346 23.2145 19.474 23.5859C19.4145 23.9497 19.3572 24.3138 19.3022 24.6785L19.2407 25.0956L17.9026 25.1232L16.5644 25.1506L15.4437 25.1236C14.8272 25.1088 14.3194 25.0936 14.3152 25.0901C14.311 25.0864 14.332 24.9407 14.3618 24.7661C14.4011 24.541 14.4429 24.3164 14.4873 24.0923C14.5439 23.805 14.5989 23.5173 14.6522 23.2293C14.7038 22.9508 14.7621 22.6049 14.782 22.4604C14.8018 22.3161 14.8434 22.0754 14.8744 21.9258C14.9053 21.7763 14.9641 21.4612 15.0049 21.2257C15.0457 20.9901 15.0892 20.7706 15.1017 20.738L15.124 20.6784H13.3156L13.2578 21.0068C13.2259 21.1873 13.1834 21.4446 13.1634 21.5788C13.1433 21.7128 13.0759 22.1433 13.0137 22.5353C12.9514 22.9274 12.8595 23.5098 12.8094 23.8295L12.6069 25.1237C12.5357 25.5746 12.4606 26.0247 12.3817 26.4741C12.3161 26.8432 12.2491 27.2121 12.1809 27.5808C12.1329 27.8387 12.0415 28.3282 11.9777 28.6688C11.9107 29.0255 11.8417 29.3819 11.7707 29.7379C11.7207 29.9854 11.6655 30.2724 11.648 30.3756C11.6303 30.4787 11.5733 30.7764 11.521 31.0369C11.4687 31.2973 11.4259 31.5378 11.4259 31.5714V31.6322H12.3227V31.6324ZM22.2484 31.6324H23.0421L23.0645 31.5731C23.0769 31.5403 23.0869 31.4548 23.0869 31.3829C23.0869 31.3109 23.1369 30.9366 23.1978 30.5513C23.3371 29.6731 23.4798 28.7956 23.626 27.9186C23.6887 27.5491 23.7545 27.1802 23.8238 26.812C23.8825 26.5026 23.9728 26.0213 24.0243 25.743C24.0757 25.4645 24.177 24.9345 24.2492 24.5652C24.3215 24.1961 24.3896 23.8793 24.4005 23.8612L24.4207 23.8282L23.618 23.8383L22.8153 23.8483L22.7483 24.3362C22.7117 24.6044 22.6313 25.1363 22.5698 25.5178C22.5084 25.8994 22.4153 26.482 22.3631 26.812C22.2999 27.2066 22.2324 27.6005 22.1609 27.9938C22.1019 28.3135 22.0114 28.803 21.9598 29.0815C21.9083 29.3602 21.8158 29.8498 21.7543 30.1695C21.6928 30.4894 21.6104 30.9114 21.571 31.1074C21.5315 31.3035 21.4893 31.5018 21.4769 31.5482L21.4547 31.6325H22.2484V31.6324ZM40.8127 31.6324H41.6005L41.6242 31.2935C41.6373 31.1072 41.6818 30.7315 41.7233 30.4588C41.7648 30.1861 41.8498 29.6423 41.912 29.2504C41.9908 28.7658 42.0766 28.2824 42.1693 27.8002C42.2487 27.3948 42.3382 26.9918 42.3684 26.9047C42.3987 26.8176 42.4235 26.7232 42.4235 26.695C42.4235 26.6666 42.4827 26.5125 42.5551 26.3527C42.6274 26.1927 42.7623 25.9478 42.8548 25.8083L43.0231 25.5548L43.2481 25.3428L43.4733 25.131L43.7508 24.9962L44.0284 24.8613L44.4529 24.8636L44.8771 24.8658L45.0857 24.9291C45.2004 24.9639 45.3043 24.9925 45.3163 24.9925C45.3285 24.9925 45.3384 24.9527 45.3384 24.9039C45.3384 24.8553 45.38 24.6083 45.4306 24.3549C45.4814 24.1017 45.5229 23.8838 45.5229 23.8707C45.5229 23.8577 45.4025 23.8097 45.2554 23.7643C45.1082 23.7189 44.9047 23.6713 44.8033 23.6584L44.6188 23.6352L44.379 23.6783C44.247 23.7021 44.0509 23.7543 43.9431 23.7947C43.8351 23.835 43.6571 23.9263 43.5473 23.9977C43.4377 24.0691 43.2668 24.2082 43.168 24.3068C43.0689 24.4054 42.9025 24.6044 42.798 24.7488C42.7167 24.861 42.6359 24.9736 42.5554 25.0864L42.5026 25.1614L42.5347 25.0113C42.5523 24.9287 42.6015 24.6586 42.6438 24.4111C42.6861 24.1635 42.7299 23.9312 42.7405 23.8953L42.7602 23.8295H41.3529V23.9201C41.3529 23.9697 41.3113 24.2694 41.2607 24.5858C41.2099 24.9025 41.1261 25.4312 41.0747 25.7615C41.0232 26.0916 40.9316 26.6655 40.8715 27.037C40.8072 27.4314 40.7395 27.8253 40.6681 28.2185C40.5293 28.9695 40.3872 29.7198 40.2419 30.4694C40.1798 30.7893 40.1054 31.1668 40.0768 31.3088C40.048 31.4505 40.0245 31.5813 40.0245 31.5994V31.6324H40.8127ZM59.5154 31.6324H60.3209V31.1311L60.4136 30.5095C60.4648 30.1678 60.549 29.6263 60.601 29.3067C60.6528 28.9868 60.7175 28.5818 60.7446 28.4062C60.7719 28.231 60.8439 27.8512 60.9046 27.5624C60.9656 27.2733 61.0414 26.9611 61.0734 26.8683C61.1056 26.7755 61.1319 26.6779 61.1322 26.6518C61.1327 26.6256 61.2013 26.457 61.2849 26.2773L61.4369 25.9504L61.6378 25.6793L61.8383 25.4084L62.0577 25.2406C62.1784 25.1483 62.3726 25.026 62.4893 24.9685L62.7012 24.8641L63.1624 24.8672L63.6237 24.8706L63.8053 24.9298L63.9869 24.9891L64.0175 24.9698L64.048 24.9505L64.0499 24.8309C64.0506 24.7651 64.0901 24.5201 64.1374 24.2865L64.2238 23.8618L64.1268 23.8233C64.0338 23.7883 63.9399 23.7558 63.8452 23.7257L63.6608 23.6665L63.3287 23.6675L62.9966 23.6683L62.7259 23.7653L62.4552 23.862L62.2519 23.9866L62.0488 24.1112L61.7846 24.3926L61.5204 24.6739L61.3784 24.8922C61.3004 25.0122 61.2317 25.1051 61.2257 25.0985C61.2197 25.0919 61.2622 24.8418 61.32 24.5427C61.3778 24.2434 61.4259 23.9606 61.4267 23.9142L61.4283 23.8297H60.063V23.8538C60.063 23.8668 60.029 24.1075 59.9873 24.3882C59.9457 24.6693 59.8621 25.2112 59.8017 25.593C59.7292 26.0496 59.6556 26.5059 59.5813 26.9622C59.5166 27.3566 59.4486 27.7506 59.3775 28.1439C59.3263 28.4223 59.2353 28.912 59.1753 29.2318C59.1154 29.5517 59.0168 30.0666 58.9563 30.3761L58.7783 31.2856L58.7101 31.6325H59.5154V31.6324ZM23.8094 22.4784L24.0333 22.4793L24.2114 22.4177L24.3897 22.356L24.5473 22.1934L24.705 22.0309L24.7879 21.8143L24.871 21.5977L24.8739 21.2788L24.8768 20.9601L24.8031 20.8356L24.7292 20.7111L24.6008 20.6304L24.4723 20.5495H23.9174L23.7286 20.6355L23.5397 20.7213L23.4301 20.8407L23.3205 20.9601L23.2343 21.1665L23.1482 21.3727L23.1319 21.6941L23.1157 22.0155L23.1958 22.1753L23.276 22.335L23.4307 22.4064L23.5853 22.4777L23.8094 22.4784Z" fill="#B3131B"/>
    </g>
    <defs>
        <clipPath id="clip0_57_8">
            <rect width="83" height="54" fill="white"/>
        </clipPath>
    </defs>
</svg>