<!-- Pix -->
<svg xmlns="http://www.w3.org/2000/svg" width="54" height="54" viewBox="0 0 54 54" fill="none">
    <path d="M15.9082 16.0001H15.2849L22.6549 8.63007C25.0566 6.23757 28.9432 6.23757 31.3449 8.63007L38.7149 16.0001H38.0916C36.6249 16.0001 35.2407 16.5684 34.2049 17.6134L27.9716 23.8192C27.4307 24.3601 26.5691 24.3601 26.0282 23.8192L19.7949 17.6134C18.7591 16.5684 17.3749 16.0001 15.9082 16.0001Z" fill="#4DB6AC"/><path d="M38.0916 37.9999H38.7149L31.3449 45.3699C28.9432 47.7624 25.0566 47.7624 22.6549 45.3699L15.2849 37.9999H15.9082C17.3749 37.9999 18.7591 37.4316 19.7949 36.3866L26.0282 30.1808C26.5691 29.6399 27.4307 29.6399 27.9716 30.1808L34.2049 36.3866C35.2407 37.4316 36.6249 37.9999 38.0916 37.9999Z" fill="#4DB6AC"/><path d="M45.3701 31.3449L40.5484 36.1666H38.0917C37.1109 36.1666 36.1942 35.7816 35.4976 35.0941L29.2642 28.8791C28.0176 27.6324 25.9826 27.6324 24.7359 28.8791L18.5026 35.0941C17.8059 35.7816 16.8892 36.1666 15.9084 36.1666H13.4517L8.63007 31.3449C6.23757 28.9433 6.23757 25.0566 8.63007 22.6549L13.4517 17.8333H15.9084C16.8892 17.8333 17.8059 18.2183 18.5026 18.9058L24.7359 25.1208C25.3592 25.7441 26.1842 26.0558 27.0001 26.0558C27.8159 26.0558 28.6409 25.7441 29.2642 25.1208L35.4976 18.9058C36.1942 18.2183 37.1109 17.8333 38.0917 17.8333H40.5484L45.3701 22.6549C47.7626 25.0566 47.7626 28.9433 45.3701 31.3449Z" fill="#4DB6AC"/>
</svg>